<?xml version="1.0" encoding="utf-8"?>
<!-- Generator: Adobe Illustrator 24.1.1, SVG Export Plug-In . SVG Version: 6.00 Build 0)  -->
<svg width="30" version="1.1" id="Layer_1" xmlns="http://www.w3.org/2000/svg" xmlns:xlink="http://www.w3.org/1999/xlink" x="0px" y="0px"
	 viewBox="0 0 512 512" style="enable-background:new 0 0 512 512;" xml:space="preserve">
<g>
	<circle cx="256" cy="256" r="12.8"/>
	<path d="M256,243.2v25.6V256l-12.8,0c0,7.1,5.7,12.8,12.8,12.8V256l-12.8,0H256V243.2c-7.1,0-12.8,5.7-12.8,12.8H256V243.2V256
		h12.8C268.8,248.9,263.1,243.2,256,243.2V256h12.8H256v12.8c7.1,0,12.8-5.7,12.8-12.8H256v12.8V243.2v-25.6
		c-21.2,0-38.4,17.2-38.4,38.4c0,21.2,17.2,38.4,38.4,38.4c21.2,0,38.4-17.2,38.4-38.4c0-21.2-17.2-38.4-38.4-38.4V243.2z"/>
	<path d="M256,76.8v25.6c42.5,0,80.7,17.2,108.6,45c27.8,27.9,45,66.1,45,108.6c0,42.5-17.2,80.7-45,108.6
		c-27.9,27.8-66.1,45-108.6,45c-42.5,0-80.7-17.2-108.6-45c-27.8-27.9-45-66.1-45-108.6c0-42.5,17.2-80.7,45-108.6
		c27.9-27.8,66.1-45,108.6-45V76.8V51.2C142.9,51.2,51.2,142.9,51.2,256c0,113.1,91.7,204.8,204.8,204.8
		c113.1,0,204.8-91.7,204.8-204.8c0-113.1-91.7-204.8-204.8-204.8V76.8z"/>
	<path d="M230.4,25.6v51.2c0,14.1,11.5,25.6,25.6,25.6s25.6-11.5,25.6-25.6V25.6C281.6,11.5,270.1,0,256,0S230.4,11.5,230.4,25.6"/>
	<path d="M25.6,281.6h51.2c14.1,0,25.6-11.5,25.6-25.6c0-14.1-11.5-25.6-25.6-25.6H25.6C11.5,230.4,0,241.9,0,256
		C0,270.1,11.5,281.6,25.6,281.6"/>
	<path d="M230.4,435.2v51.2c0,14.1,11.5,25.6,25.6,25.6s25.6-11.5,25.6-25.6v-51.2c0-14.1-11.5-25.6-25.6-25.6
		S230.4,421.1,230.4,435.2"/>
	<path d="M435.2,281.6h51.2c14.1,0,25.6-11.5,25.6-25.6c0-14.1-11.5-25.6-25.6-25.6h-51.2c-14.1,0-25.6,11.5-25.6,25.6
		C409.6,270.1,421.1,281.6,435.2,281.6"/>
</g>
</svg>
