<?xml version="1.0" encoding="utf-8"?>
<!-- Generator: Adobe Illustrator 21.0.0, SVG Export Plug-In . SVG Version: 6.00 Build 0)  -->
<svg version="1.1" id="Layer_1" xmlns="http://www.w3.org/2000/svg" xmlns:xlink="http://www.w3.org/1999/xlink" x="0px" y="0px"
	 viewBox="0 0 512 512" style="enable-background:new 0 0 512 512;" xml:space="preserve">
<style>
  .layer1{
	  fill: #f1f1f1
  }
</style>
<path class="layer1" d="M495,85.3h-97.7l9.5-38l41.3-14.1c8.9-3,13.7-12.7,10.7-21.7c-3-8.9-12.7-13.7-21.7-10.7L387,18c-5.5,1.9-9.6,6.4-11.1,12
	l-13.8,55.3H221.9c-9.4,0-17.1,7.6-17.1,17.1c0,9.4,7.6,17.1,17.1,17.1h2.8l5.9,51.1h-72.8c-16.2,0-31.8,2.1-46.3,6.4
	c-10.9,3.2-21.2,7.7-30.5,13.6c-7,4.4-13.5,9.5-19.2,15.4c-8.7,8.8-15.7,19.4-20.4,31.4c-4.4,11.1-6.9,23.3-7.3,36.5
	c-2.8,0.6-5.6,1.4-8.1,2.5c-7.7,3.3-14.2,8.6-18.8,15.4C5,295.2,3.2,299,1.9,303c-1.3,4-1.9,8.3-1.9,12.7c0,5.8,1.2,11.5,3.4,16.6
	c2.1,4.9,5.1,9.4,8.7,13.2c-2.3,3.2-4.3,6.6-5.9,10.1C2.2,364.2,0,373.8,0,384c0,7.7,1.3,15.2,3.6,22.1c1.8,5.2,4.1,10,7,14.5
	c4.4,6.6,10.1,12.4,17,16.5c3.4,2.1,7.2,3.7,11.2,4.9c3.8,1,7.7,1.7,11.6,1.8c0.8,5,2,10,3.6,14.7c2.4,7.5,5.8,14.6,10.1,21.1
	c6.5,9.7,15.2,17.9,25.7,23.6c5.3,2.9,11,5.1,17,6.5c6,1.5,12.4,2.2,19,2.2h128.4c0.6,0.1,1.2,0.1,1.8,0.1h148.6
	c6.7,0,13.1-1.3,19-3.7c8.8-3.5,16.5-9.4,22.1-17c5.5-7.4,9.1-16.5,10-26.2l0,0l36.6-345.6h2.7c9.4,0,17.1-7.6,17.1-17.1
	C512.1,93,504.5,85.3,495,85.3z M80.5,236.7c3.7-5,8.1-9.4,13.3-13.4c7.8-5.9,17.2-10.5,28.1-13.7c10.9-3.2,23.1-4.9,36-4.9h76.8
	c13.2,0,25.5,1.7,36.5,5c8.2,2.5,15.7,5.8,22.2,9.9c4.9,3,9.2,6.5,12.9,10.4c5.6,5.8,10,12.4,13.1,20.2c2.7,6.7,4.3,14.2,4.8,22.8
	H68.4c0.2-4.6,0.8-8.9,1.7-12.9C72.1,251,75.7,243.4,80.5,236.7z M34.8,312.5c0.6-1.5,1.7-2.8,3.1-3.8c0.7-0.5,1.4-0.8,2.2-1.1
	c0.8-0.2,1.6-0.4,2.5-0.4h307.2c1.2,0,2.3,0.2,3.3,0.7c1.5,0.6,2.8,1.7,3.8,3.1c0.5,0.7,0.8,1.4,1.1,2.2c0.2,0.8,0.4,1.6,0.4,2.5
	c0,1.2-0.2,2.3-0.7,3.3c-0.6,1.5-1.7,2.8-3.1,3.8c-0.7,0.5-1.4,0.8-2.2,1.1c-0.8,0.2-1.6,0.4-2.5,0.4v-0.1H174.2
	c-6.8,0-13.3,2.7-18.1,7.5l-19.5,19.5L117,331.8c-4.8-4.8-11.3-7.5-18.1-7.5H53.1c-0.6-0.1-1.2-0.1-1.8-0.1c-1,0-1.9,0-2.9,0.1h-5.7
	c-1.2,0-2.3-0.2-3.3-0.7c-1.5-0.6-2.8-1.7-3.8-3.1c-0.5-0.7-0.8-1.4-1.1-2.2c-0.2-0.8-0.4-1.6-0.4-2.5
	C34.1,314.6,34.3,313.5,34.8,312.5z M43.9,406.8c-2.4-1.8-4.9-4.8-6.7-8.8c-1.8-3.9-3-8.8-3-14.1c0-4,0.7-7.8,1.8-11.1
	c0.8-2.5,1.9-4.7,3.2-6.6c1.9-2.8,4-4.9,6.1-6.1c1-0.6,2-1.1,3-1.3c1-0.3,1.9-0.4,3-0.4h44.1l26.1,26.1l0,0l0,0l0.5,0.5l0.5,0.4l0,0
	c1.8,1.6,3.9,2.9,6.1,3.8c2.6,1,5.3,1.6,8,1.6c2.7,0,5.4-0.5,8-1.6c2.6-1,5-2.6,7.1-4.7l26.1-26.1h163.5c0.9,0,1.8,0.1,2.6,0.3
	c1.5,0.4,3.1,1.1,4.7,2.4c2.4,1.8,4.9,4.8,6.7,8.8c1.8,3.9,3,8.8,3,14.1c0,4-0.7,7.8-1.8,11.1c-0.8,2.5-1.9,4.7-3.2,6.6
	c-1.9,2.8-4,4.9-6.1,6.1c-1,0.6-2,1.1-3,1.3c-1,0.3-1.9,0.4-3,0.4h-13c-0.6-0.1-1.2-0.1-1.8-0.1c-0.5,0-0.9,0.1-1.4,0.1H51.2
	c-0.9,0-1.8-0.1-2.6-0.3C47.1,408.8,45.5,408.1,43.9,406.8z M107.9,474.1c-3.8-1.8-7.1-4.1-10-7c-4.4-4.3-8.1-10-10.6-16.8
	c-0.8-2.1-1.4-4.2-2-6.5h222c-0.4,1.4-0.8,2.8-1.2,4.2c-1.5,4.7-3.6,9-6,12.6c-3.7,5.5-8.2,9.7-13.6,12.6c-2.7,1.5-5.7,2.6-8.9,3.4
	c-2.4,0.6-5.1,1-7.9,1.2H256c-0.6,0-1.2,0-1.8,0.1H125.9C118.8,477.9,112.9,476.5,107.9,474.1z M421.7,461.8v0.3
	c-0.2,2.3-0.8,4.3-1.7,6.2c-1.4,2.8-3.6,5.2-6.2,6.9c-2.7,1.7-5.7,2.6-9.1,2.6h-75.2c3.1-4.9,5.7-10.2,7.8-15.7
	c2.2-5.9,3.8-12,4.8-18.3c3.5-0.1,7-0.5,10.3-1.4c6.3-1.6,12-4.5,16.9-8.3c7.4-5.6,13.2-13.2,17.1-21.7c3.9-8.6,6.1-18.2,6.1-28.4
	c0-7.7-1.3-15.2-3.6-22.1c-1.8-5.2-4.1-10-7-14.5c-0.4-0.7-0.9-1.3-1.4-2c1.8-1.8,3.4-3.7,4.8-5.8c2.3-3.4,4.1-7.2,5.4-11.2
	s1.9-8.3,1.9-12.7c0-5.8-1.2-11.5-3.4-16.6c-3.3-7.7-8.6-14.2-15.4-18.8c-3.4-2.3-7.2-4.1-11.2-5.4c-1.4-0.5-2.9-0.8-4.4-1.1
	c-0.5-15.6-3.9-30-10-42.7c-4.9-10.2-11.6-19.2-19.5-26.9c-5.9-5.7-12.5-10.7-19.6-14.9c-10.7-6.3-22.5-11-35-14.1
	c-3.1-0.8-6.2-1.4-9.4-2c0.2-1.5,0.3-3,0.1-4.5l-5.7-49.2h198.8L421.7,461.8z"/>
</svg>
